<?xml version="1.0" standalone="no"?>
<!DOCTYPE svg PUBLIC "-//W3C//DTD SVG 20010904//EN"
 "http://www.w3.org/TR/2001/REC-SVG-20010904/DTD/svg10.dtd">
<svg version="1.0" xmlns="http://www.w3.org/2000/svg"
 width="1200.000000pt" height="588.000000pt" viewBox="0 0 1200.000000 588.000000"
 preserveAspectRatio="xMidYMid meet">
<metadata>
Created by potrace 1.16, written by Peter Selinger 2001-2019
</metadata>
<g transform="translate(0.000000,588.000000) scale(0.100000,-0.100000)"
fill="#000000" stroke="none">
<path d="M9750 5853 c-8 -16 -27 -40 -42 -55 -15 -15 -28 -29 -28 -32 0 -5
-110 -149 -168 -221 -45 -56 -212 -283 -212 -289 0 -4 -6 -13 -12 -20 -7 -8
-49 -66 -93 -131 -86 -127 -155 -213 -155 -195 0 7 -9 24 -20 40 -15 21 -25
26 -46 22 -14 -2 -28 -11 -31 -18 -3 -9 -21 -14 -50 -14 -34 0 -44 -3 -40 -14
4 -11 -2 -12 -28 -6 -19 4 -36 6 -38 4 -2 -3 -10 2 -17 11 -17 20 -37 19 -43
-2 -4 -14 -5 -12 -6 5 -1 16 -7 22 -25 22 -13 0 -31 3 -40 6 -19 7 -21 34 -3
34 6 1 -1 8 -16 16 -22 12 -28 21 -23 38 7 29 -18 42 -93 52 -75 9 -121 30
-121 54 0 16 -7 20 -30 20 -17 0 -30 5 -30 13 0 6 -7 21 -16 32 -13 17 -16 18
-25 5 -6 -8 -12 -11 -15 -5 -19 45 -47 75 -76 83 -23 6 -34 15 -36 30 -2 12
-7 22 -12 22 -5 0 -16 8 -26 17 -15 16 -15 17 2 23 15 6 12 9 -19 20 -20 8
-37 20 -37 26 0 7 -8 15 -17 17 -15 4 -15 5 2 6 19 1 19 3 -4 20 -14 11 -25
30 -26 47 -5 71 -2 68 -34 45 -42 -30 -55 -27 -36 9 9 17 20 30 26 30 6 0 7 5
4 11 -4 6 -13 8 -21 5 -8 -3 -11 0 -8 8 3 7 -2 19 -11 26 -8 7 -15 25 -15 41
0 27 -20 43 -20 17 0 -7 -8 -1 -18 15 -17 27 -42 37 -42 16 0 -6 -9 -18 -19
-27 -11 -10 -28 -34 -39 -54 l-19 -37 -19 39 c-10 22 -21 40 -24 40 -3 0 -4
18 -2 40 2 23 0 40 -6 40 -6 0 -14 12 -19 27 -9 26 -9 26 -36 -24 -23 -45 -24
-50 -8 -46 23 6 27 -10 30 -115 2 -57 -2 -88 -12 -102 -7 -11 -16 -17 -19 -14
-4 3 -9 -4 -13 -16 -5 -14 -2 -25 6 -30 9 -6 10 -12 2 -22 -19 -22 -21 -258
-3 -258 6 0 11 17 11 38 1 26 3 30 6 12 2 -14 17 -53 34 -88 16 -35 29 -71 29
-80 0 -34 13 -62 27 -62 8 0 11 -4 8 -10 -3 -5 1 -23 10 -39 8 -17 15 -45 15
-64 0 -34 20 -64 33 -50 4 3 7 -5 7 -19 0 -14 11 -42 25 -62 14 -20 25 -43 25
-51 0 -8 6 -18 14 -22 7 -4 30 -40 52 -80 22 -41 48 -76 62 -82 13 -6 21 -15
18 -20 -3 -5 1 -11 9 -15 8 -3 15 -10 15 -15 0 -10 -77 5 -95 18 -10 8 -74 26
-65 18 13 -11 138 -75 160 -82 25 -7 110 -82 110 -97 0 -4 -8 -4 -17 -1 -16 6
-17 5 -2 -9 8 -9 24 -17 34 -19 10 -2 23 -19 30 -39 6 -19 16 -35 21 -35 5 0
19 -9 32 -20 27 -24 29 -55 3 -55 -27 0 -51 -10 -51 -22 0 -9 127 -5 184 5 6
1 12 -8 14 -20 2 -17 17 -27 68 -43 50 -17 67 -28 75 -47 7 -20 6 -30 -6 -43
-8 -9 -15 -20 -15 -24 0 -4 -13 -19 -30 -33 -35 -29 -38 -43 -10 -43 11 0 20
7 20 15 0 8 4 15 8 15 5 0 19 9 32 20 29 25 33 25 55 0 10 -11 21 -17 25 -15
4 3 10 -1 13 -9 3 -8 22 -19 41 -26 20 -6 36 -17 36 -25 0 -7 7 -18 15 -25 19
-16 19 -30 1 -30 -8 0 -17 -9 -21 -19 -3 -11 -12 -21 -19 -24 -17 -7 -106 18
-162 44 -22 10 -46 19 -52 19 -7 0 -12 5 -12 10 0 6 -11 10 -24 10 -13 0 -26
3 -28 8 -1 4 -19 15 -38 24 -60 30 -95 52 -148 93 -103 80 -146 110 -154 107
-4 -1 -8 2 -8 8 0 5 6 10 13 11 7 0 5 3 -4 7 -22 9 -119 98 -119 109 0 4 -16
23 -35 42 -19 19 -35 38 -35 42 0 5 -5 9 -11 9 -7 0 -5 -10 6 -26 16 -26 16
-26 -7 -19 -12 4 -24 12 -26 16 -2 5 -10 9 -17 9 -8 0 -16 9 -20 20 -3 11 -11
19 -17 17 -6 -1 -13 4 -15 11 -3 6 3 12 12 12 9 0 13 5 10 10 -4 6 -10 8 -15
5 -5 -3 -21 20 -36 50 -29 63 -144 188 -152 166 -2 -7 1 -17 8 -21 7 -4 10
-12 6 -18 -3 -5 1 -15 9 -22 8 -7 15 -17 15 -22 0 -17 93 -208 102 -208 4 0 8
-6 8 -14 0 -14 -77 -20 -85 -6 -3 5 4 6 15 3 21 -5 28 11 10 22 -5 3 -10 15
-10 26 0 11 -10 24 -22 29 -13 5 -17 9 -9 9 11 1 11 4 0 17 -8 10 -21 13 -36
9 -13 -3 -23 -1 -23 5 0 5 10 10 21 10 19 0 20 2 8 16 -8 9 -20 35 -26 58
l-13 41 6 -54 c5 -49 4 -52 -11 -37 -9 9 -15 24 -14 33 4 40 -1 55 -16 49 -11
-4 -15 2 -15 20 0 18 -4 24 -13 21 -10 -4 -13 2 -9 20 l5 26 -26 -19 c-15 -10
-27 -22 -27 -25 0 -3 -21 -32 -46 -65 -58 -74 -88 -134 -68 -134 8 0 11 -6 8
-15 -9 -21 20 -29 66 -17 46 11 55 -3 13 -19 -72 -29 -114 -53 -101 -59 17 -6
25 -125 9 -134 -14 -9 -14 -76 -1 -76 6 0 8 -10 4 -24 -3 -14 1 -37 10 -54 9
-17 16 -51 16 -77 0 -25 5 -45 11 -45 17 0 129 -125 129 -144 0 -7 13 -24 45
-59 11 -12 18 -32 17 -44 -2 -13 1 -23 7 -23 19 0 41 -32 41 -61 0 -16 5 -29
10 -29 6 0 10 12 10 26 0 43 19 16 26 -36 4 -28 10 -50 15 -50 5 0 9 5 9 10 0
6 5 10 11 10 7 0 9 -11 6 -30 -4 -16 -2 -32 4 -36 6 -3 14 -16 19 -28 4 -12
17 -22 31 -23 12 -1 25 -6 28 -11 3 -5 23 -9 44 -10 51 -2 80 -19 74 -43 -4
-15 0 -19 20 -19 13 0 33 -5 44 -11 15 -7 24 -7 34 1 10 8 19 8 34 1 27 -15
31 -14 31 7 1 16 1 16 14 0 7 -10 22 -18 32 -18 43 0 64 -12 64 -36 0 -24 1
-24 25 -8 18 11 25 13 25 4 0 -9 10 -10 33 -5 17 4 52 8 77 9 25 0 48 5 51 9
4 5 25 10 48 10 29 2 43 7 47 20 3 9 10 17 15 17 5 0 9 -8 9 -17 1 -17 1 -17
11 0 5 9 18 17 27 16 10 0 12 -3 5 -6 -7 -2 -13 -15 -13 -27 0 -12 -5 -27 -12
-34 -6 -6 -26 -37 -42 -67 -17 -30 -51 -87 -76 -127 -38 -61 -45 -81 -48 -135
-5 -72 27 -176 59 -194 20 -10 26 0 10 17 -13 15 -41 105 -41 135 0 34 23 89
53 125 13 16 43 58 67 94 73 107 122 163 131 149 6 -10 11 -10 24 1 9 8 24 15
33 16 10 1 37 10 62 19 52 19 102 13 131 -16 12 -12 35 -20 62 -22 23 -1 49
-8 57 -16 9 -9 15 -10 18 -3 2 7 15 4 35 -9 18 -10 41 -19 52 -19 11 -1 33
-12 50 -25 26 -22 28 -27 17 -45 -10 -17 -10 -20 3 -20 8 0 21 -12 29 -27 14
-28 33 -177 28 -220 -3 -21 1 -23 45 -23 26 0 59 -3 73 -5 22 -5 23 -4 5 5
-16 8 -11 9 23 5 28 -3 42 -1 42 6 0 8 4 8 15 -1 8 -7 26 -10 40 -8 14 3 25 1
25 -3 0 -5 -12 -9 -27 -10 l-28 0 24 -10 c18 -7 33 -5 57 6 17 8 37 15 43 15
6 0 11 4 11 9 0 5 11 12 25 15 14 4 35 16 46 27 11 11 35 22 52 25 18 2 33 8
35 14 2 5 10 10 18 10 8 0 14 4 14 9 0 5 12 12 27 16 15 3 30 10 33 14 8 13
134 84 148 84 7 0 11 6 8 13 -3 8 0 11 10 7 18 -7 18 -17 -1 -33 -8 -7 -15 -9
-15 -6 0 15 -90 -56 -91 -72 0 -10 -3 -12 -6 -4 -7 17 -23 15 -23 -3 0 -8 -6
-12 -14 -9 -8 3 -16 -3 -19 -15 -3 -13 -11 -19 -19 -16 -17 7 -71 -33 -63 -46
4 -5 -1 -9 -9 -9 -9 0 -16 -4 -16 -10 0 -5 -4 -10 -10 -10 -9 0 -35 -19 -65
-47 -8 -7 -18 -13 -24 -13 -6 0 -20 -9 -30 -19 -11 -11 -33 -27 -48 -36 -36
-20 -64 -37 -80 -50 -30 -24 -40 -32 -80 -59 -24 -16 -43 -31 -43 -33 0 -2 5
-1 12 3 7 4 8 3 4 -5 -4 -6 -12 -9 -17 -6 -5 4 -20 -5 -34 -19 -14 -14 -25
-23 -25 -20 0 3 -10 -5 -22 -16 -33 -30 -154 -86 -219 -100 -87 -19 -199 -8
-292 28 -94 37 -142 49 -133 33 4 -6 12 -9 17 -6 5 4 9 -4 9 -17 0 -13 5 -30
10 -38 10 -16 13 -8 10 29 -1 15 2 21 9 16 6 -3 9 -17 7 -31 -5 -27 10 -33 17
-7 4 14 5 12 6 -4 0 -13 6 -23 12 -23 6 0 8 9 4 23 -6 19 -4 19 12 -5 17 -24
20 -25 29 -10 10 14 16 15 67 2 31 -7 57 -16 57 -19 0 -3 37 -6 83 -6 45 0
107 -3 137 -7 30 -5 47 -4 36 0 -14 6 -5 12 43 27 34 10 69 18 79 18 9 0 20 5
24 11 4 6 11 11 15 12 4 0 17 4 28 9 11 4 42 17 69 27 l48 19 -6 -26 c-9 -35
0 -31 19 9 13 27 27 37 63 49 98 31 92 31 92 1 0 -24 2 -25 17 -13 15 12 16
12 10 -3 -5 -15 -4 -16 14 -5 16 10 21 9 29 -3 8 -13 10 -12 10 4 0 16 5 17
43 12 l44 -7 12 43 c18 62 36 85 71 93 16 4 28 10 26 14 -3 4 3 7 12 8 38 4
122 27 122 34 0 4 15 5 34 2 19 -3 36 -1 40 6 4 6 0 11 -11 12 -14 0 -15 2 -3
6 8 4 20 13 27 22 10 13 11 11 7 -14 -2 -16 -12 -54 -20 -84 -8 -29 -13 -55
-11 -57 4 -5 57 137 57 154 0 23 71 22 175 -4 58 -14 108 -24 110 -22 3 2 -39
16 -93 31 -91 26 -146 51 -86 39 19 -3 25 -1 20 7 -5 7 1 11 16 11 13 0 28 4
33 8 6 5 30 15 55 22 25 7 72 26 105 41 33 15 67 29 75 31 8 2 18 8 22 13 12
17 2 -56 -18 -129 -16 -58 -24 -71 -45 -80 l-27 -10 32 -16 c36 -19 67 -15 40
4 -15 12 -14 21 14 112 20 62 40 108 54 121 13 11 57 35 98 53 161 69 427 197
478 231 24 16 49 29 56 29 7 0 21 8 32 18 11 11 24 21 29 23 35 15 158 95 162
106 3 7 10 13 15 13 12 0 211 132 263 175 22 18 67 55 100 81 33 26 62 50 65
54 3 3 17 13 32 23 l28 17 0 493 0 492 -195 -192 c-228 -225 -357 -333 -397
-333 -16 0 -28 -5 -28 -12 0 -7 -10 -3 -22 9 -17 17 -19 25 -10 36 7 8 8 18 4
22 -4 5 10 -2 31 -14 42 -26 32 -30 132 54 82 69 81 67 88 96 10 37 163 179
194 179 17 0 173 157 173 175 0 5 -18 28 -40 50 -40 41 -40 42 -21 59 19 17
21 16 55 -21 l35 -38 1 568 0 567 -170 0 c-107 0 -170 -4 -170 -10 0 -5 5 -10
10 -10 6 0 10 -4 10 -10 0 -5 -8 -10 -18 -10 -10 0 -37 -24 -60 -52 -23 -29
-53 -65 -66 -80 l-24 -26 -10 21 c-9 19 -11 16 -11 -20 -1 -24 -5 -43 -11 -43
-5 0 -10 6 -10 13 0 6 -6 3 -12 -8 -17 -28 -79 -85 -93 -85 -7 0 -15 -9 -18
-21 -3 -11 -15 -23 -26 -26 -12 -3 -21 -10 -21 -15 0 -5 -13 -14 -30 -19 -16
-6 -30 -17 -30 -25 0 -8 -9 -14 -20 -14 -12 0 -20 -7 -20 -16 0 -10 -5 -14
-15 -10 -20 7 -65 -14 -65 -31 0 -7 -9 -13 -20 -13 -11 0 -19 -3 -19 -7 4 -27
-3 -43 -21 -43 -11 0 -20 5 -20 11 0 8 -4 8 -14 -1 -8 -6 -12 -18 -9 -26 4
-10 -3 -14 -26 -14 -17 0 -31 5 -31 12 0 9 -3 9 -12 0 -10 -10 -10 -15 2 -23
13 -9 13 -10 0 -6 -15 5 -84 -28 -108 -50 -7 -7 -20 -13 -28 -13 -8 0 -14 -6
-14 -14 0 -14 -49 -36 -81 -36 -11 0 -19 -4 -19 -10 0 -5 -9 -10 -19 -10 -10
0 -22 -8 -25 -17 -6 -15 -8 -15 -17 -3 -6 10 -11 12 -16 4 -5 -6 -27 -14 -51
-18 -24 -3 -54 -14 -68 -22 -16 -11 -24 -12 -24 -5 0 14 -73 4 -78 -10 -2 -5
-12 -9 -22 -9 -10 0 -22 -5 -26 -12 -5 -7 -11 -5 -21 7 -12 17 -13 17 -13 -11
-1 -26 -2 -27 -14 -11 -12 15 -14 16 -20 2 -4 -11 -21 -15 -66 -15 -45 0 -60
-4 -60 -14 0 -16 -50 -32 -59 -18 -6 9 -17 8 -128 -4 -35 -4 -53 -2 -53 5 0 6
-4 11 -10 11 -5 0 -10 -7 -10 -15 0 -9 -10 -15 -26 -15 -14 0 -55 -12 -92 -26
-64 -26 -71 -27 -206 -21 -78 3 -135 3 -128 -2 7 -4 -14 -7 -47 -6 -33 1 -58
-2 -56 -6 7 -11 -24 -20 -50 -13 -32 8 -37 26 -20 74 14 40 98 203 154 298 15
26 35 65 45 87 10 22 26 49 36 60 9 11 33 50 54 87 20 37 41 70 46 73 5 3 26
34 45 68 20 34 59 94 86 132 73 103 74 105 46 105 -16 0 -28 -9 -37 -27z"/>
<path d="M7391 5620 c-1 -19 -3 -22 -11 -10 -10 16 -22 9 -28 -18 -13 -57 -23
-162 -26 -262 -2 -63 -9 -162 -16 -219 -10 -78 -11 -106 -2 -109 8 -2 8 -8 -1
-23 -8 -14 -9 -24 -1 -36 6 -10 7 -37 3 -72 -5 -31 -6 -66 -3 -77 3 -12 -2
-49 -12 -83 -15 -57 -16 -63 0 -79 19 -22 21 -83 4 -100 -9 -9 -5 -12 18 -13
49 -2 56 1 93 44 20 22 45 51 57 63 27 28 55 99 48 119 -4 10 -2 15 7 13 9 -2
13 5 11 20 -1 17 4 25 18 29 12 3 20 14 20 25 0 14 -5 18 -15 14 -10 -3 -20 7
-32 31 -12 27 -14 38 -5 41 14 4 16 22 3 22 -5 0 -13 -9 -16 -21 -11 -35 -16
-16 -21 87 -3 54 -10 102 -16 105 -7 4 -5 9 3 12 11 5 10 8 -3 17 -15 9 -16
14 -3 51 8 23 12 45 9 50 -3 5 1 12 9 15 12 4 13 12 6 37 -5 18 -8 48 -8 67 1
23 3 27 6 13 2 -13 9 -23 14 -23 12 0 11 41 -1 60 -9 13 -11 13 -20 0 -8 -11
-10 -6 -8 20 1 20 -6 51 -16 70 -9 19 -20 54 -23 78 -3 24 -11 42 -19 42 -7 0
-15 6 -17 13 -3 6 -6 1 -6 -13z"/>
<path d="M5709 4186 c-9 -25 -17 -32 -31 -28 -14 3 -18 -1 -18 -22 0 -14 5
-26 10 -26 6 0 10 -5 10 -11 0 -6 -7 -8 -16 -5 -20 8 -67 -21 -59 -34 4 -6 -1
-10 -9 -10 -9 0 -25 -9 -37 -21 -20 -20 -20 -21 -2 -42 17 -19 17 -20 0 -14
-18 7 -77 -28 -77 -44 0 -15 82 -57 101 -52 24 7 47 33 28 33 -7 0 0 13 16 30
29 30 58 43 35 15 -7 -9 -11 -17 -9 -19 2 -2 13 8 23 22 11 14 14 22 8 18 -31
-19 -5 16 61 82 67 65 99 90 81 60 -4 -7 -3 -8 4 -4 14 8 16 36 3 36 -4 0 -29
16 -54 35 -25 19 -48 35 -51 35 -2 0 -10 -15 -17 -34z"/>
<path d="M5877 4095 c-9 -8 -20 -15 -26 -15 -6 0 -10 -4 -8 -8 4 -14 -45 -72
-60 -72 -8 0 -11 -4 -8 -10 7 -12 -44 -70 -62 -70 -8 0 -11 -5 -8 -11 4 -5 -9
-26 -29 -45 -20 -19 -36 -39 -36 -44 0 -6 -4 -10 -10 -10 -5 0 -10 -5 -10 -11
0 -6 -6 -17 -14 -25 -8 -8 -19 -14 -25 -14 -6 0 -11 -5 -11 -11 0 -6 -6 -16
-12 -23 -7 -7 -24 -27 -38 -44 -14 -18 -31 -32 -38 -32 -7 0 -11 -4 -7 -9 3
-5 -6 -18 -20 -29 -13 -11 -22 -22 -18 -25 3 -4 -2 -9 -11 -13 -9 -3 -16 -10
-16 -16 0 -13 -26 -38 -39 -38 -6 0 -10 -4 -9 -8 4 -11 -48 -72 -61 -72 -6 0
-11 -7 -11 -15 0 -8 -4 -15 -10 -15 -5 0 -10 -4 -10 -9 0 -5 -17 -26 -37 -48
-21 -22 -49 -54 -63 -72 -16 -21 -31 -30 -43 -27 -14 3 -16 2 -7 -9 13 -16 -3
-30 -22 -19 -9 5 -9 2 1 -9 13 -17 7 -22 -21 -18 -4 0 -5 -6 -2 -14 4 -8 1
-15 -5 -15 -6 0 -11 -7 -11 -16 0 -11 -6 -14 -22 -9 -15 4 -18 3 -10 -3 21
-15 -21 -55 -50 -47 -20 5 -20 4 -5 -5 24 -15 22 -34 -4 -27 -16 4 -18 3 -9
-8 12 -15 -3 -31 -20 -20 -6 3 -7 -1 -4 -9 4 -10 1 -16 -10 -16 -10 0 -13 -6
-10 -15 4 -10 0 -15 -11 -15 -9 0 -14 -4 -10 -9 11 -18 -15 -22 -47 -6 -29 14
-31 14 -14 0 11 -8 24 -15 29 -15 5 0 7 -6 4 -12 -2 -7 -9 -12 -15 -11 -6 2
-9 -4 -6 -12 4 -9 0 -15 -10 -15 -9 0 -16 -7 -16 -16 0 -11 -6 -14 -22 -9 -18
5 -20 4 -8 -4 11 -8 12 -13 4 -21 -9 -9 -14 -9 -18 -1 -4 6 -13 11 -19 11 -7
0 -4 -5 6 -11 23 -13 22 -29 -3 -29 -13 0 -18 -5 -14 -15 7 -18 0 -19 -29 -4
-20 9 -20 9 -4 -4 25 -20 22 -40 -5 -33 -13 3 -17 3 -10 0 6 -3 12 -10 12 -15
0 -12 -37 -12 -45 1 -3 6 -11 10 -18 10 -6 0 -1 -7 11 -16 29 -20 28 -37 0
-30 -13 3 -17 3 -10 0 16 -8 15 -20 -5 -43 -13 -16 -21 -18 -37 -9 -17 9 -19
8 -8 -3 19 -20 14 -31 -10 -24 -19 6 -21 5 -10 -6 18 -20 15 -32 -9 -26 -15 4
-18 2 -10 -7 14 -16 -25 -50 -47 -41 -14 5 -15 4 -4 -6 16 -17 15 -29 -3 -29
-8 0 -14 -6 -13 -12 2 -8 -7 -12 -22 -11 -14 1 -19 -1 -12 -3 12 -6 18 -34 7
-34 -4 0 -20 7 -38 15 -29 14 -30 14 -13 0 11 -8 24 -15 29 -15 4 0 5 -5 1
-11 -3 -6 -16 -8 -28 -5 -20 5 -20 4 -3 -9 24 -17 6 -28 -25 -15 -22 10 -68
40 -113 75 -23 18 -32 19 -41 4 -3 -6 9 -24 27 -40 28 -24 32 -30 19 -38 -11
-8 -16 -7 -18 4 -2 8 -10 11 -18 8 -8 -3 -20 2 -27 11 -11 15 -15 14 -45 -15
-33 -32 -37 -54 -5 -28 15 12 16 12 10 -5 -9 -24 9 -47 31 -39 15 6 15 5 3
-11 -13 -16 -16 -15 -41 9 -26 25 -67 38 -42 13 7 -7 8 -17 1 -30 -10 -19 4
-27 16 -8 12 20 26 10 14 -11 -12 -24 4 -51 20 -33 69 74 129 149 125 156 -7
11 3 10 29 -4 46 -27 68 -46 57 -53 -6 -4 -17 -1 -25 5 -9 7 -15 8 -15 2 0 -5
8 -13 17 -16 11 -5 13 -10 6 -17 -8 -8 -19 -6 -39 6 l-29 17 23 -20 c29 -27
28 -35 -5 -28 -23 5 -25 4 -10 -4 29 -18 9 -31 -23 -15 -42 22 -50 18 -13 -6
35 -23 35 -43 0 -34 -12 2 -16 2 -9 -1 19 -9 14 -24 -8 -24 -11 0 -20 5 -20
10 0 6 -6 10 -12 10 -7 -1 -3 -9 10 -20 24 -20 16 -34 -15 -24 -17 5 -17 5 0
-9 12 -10 15 -17 7 -22 -6 -4 -18 -1 -26 6 -8 6 -17 9 -21 6 -3 -4 2 -9 11
-13 27 -10 18 -27 -11 -21 -23 4 -25 3 -11 -7 14 -11 14 -13 -2 -34 -12 -14
-25 -20 -37 -16 -15 5 -16 4 -3 -5 13 -10 13 -13 -2 -25 -10 -7 -18 -18 -18
-25 0 -14 -12 -14 -28 -1 -9 7 -9 7 -2 -2 15 -17 12 -28 -6 -28 -10 0 -14 -6
-10 -15 3 -9 0 -15 -10 -15 -11 0 -14 6 -10 16 7 18 -2 37 -14 29 -4 -3 -3
-20 2 -39 9 -30 7 -41 -20 -92 -23 -43 -25 -51 -9 -31 12 16 34 42 50 59 15
16 24 34 21 40 -5 7 -2 8 5 3 8 -4 28 10 56 39 23 25 50 46 59 46 10 0 14 5
11 10 -7 11 45 85 108 155 20 22 37 43 37 47 0 4 15 22 33 40 17 18 42 46 54
63 16 22 28 29 50 28 27 -2 27 -2 9 12 -19 14 -18 16 22 56 23 22 42 43 42 46
0 5 76 96 123 147 16 17 41 47 55 66 15 19 32 40 39 45 11 10 50 55 126 146
33 40 41 45 70 41 31 -4 31 -3 12 11 -16 13 -18 19 -8 34 6 10 16 17 23 15 6
-1 9 2 5 8 -3 5 1 10 10 10 9 0 13 5 10 10 -3 6 1 10 9 10 9 0 16 -5 16 -11 0
-5 5 -7 12 -3 8 5 6 11 -6 20 -16 11 -14 17 26 61 23 26 49 52 56 56 6 4 18
20 26 35 8 15 33 45 56 67 22 22 55 60 72 85 17 25 46 61 64 80 47 51 73 80
129 150 28 34 67 80 88 102 20 22 37 42 37 44 0 2 8 12 18 23 9 10 35 40 57
66 22 27 48 55 58 64 9 8 17 21 17 29 0 7 5 10 10 7 6 -3 10 -1 10 5 0 6 4 9
9 6 5 -4 11 -3 13 2 1 4 24 20 49 35 42 24 47 31 51 68 4 46 -3 56 -25 34z"/>
<path d="M4629 3199 c-19 -21 -54 -60 -77 -87 -24 -26 -64 -71 -90 -100 -25
-29 -61 -70 -81 -91 -67 -70 -126 -145 -125 -158 1 -7 -2 -11 -6 -8 -4 2 -22
-11 -40 -30 -33 -34 -34 -59 -2 -49 14 5 15 4 2 -5 -12 -8 -11 -10 7 -8 18 1
20 4 11 20 -15 30 -4 29 29 -2 18 -16 34 -27 37 -24 2 3 -12 20 -32 39 l-36
34 32 -9 c30 -9 47 2 20 12 -7 2 -10 7 -6 11 3 4 16 3 27 -3 17 -10 20 -9 15
4 -4 8 -10 15 -15 15 -5 0 -9 5 -9 11 0 7 9 9 21 6 16 -4 18 -3 9 8 -21 26 8
25 39 -1 37 -31 42 -18 6 16 -25 24 -25 50 1 29 17 -14 19 2 2 19 -18 18 4 14
32 -5 l25 -17 -17 26 c-21 32 -25 59 -6 40 18 -18 27 -14 21 11 -5 20 -4 20
26 -7 17 -17 31 -24 31 -18 0 7 -9 20 -20 29 -27 23 -25 36 2 27 20 -6 21 -5
9 10 -20 24 -5 33 19 11 11 -10 20 -14 20 -9 0 5 -9 18 -21 27 -20 18 -20 19
-3 38 22 25 27 24 55 -6 13 -13 28 -25 33 -25 6 0 -5 15 -23 34 -26 27 -29 34
-17 39 9 4 16 2 16 -3 0 -6 5 -10 12 -10 8 0 6 6 -4 16 -24 24 -3 56 28 43 19
-6 22 -5 17 7 -3 8 -12 13 -19 10 -8 -3 -14 -1 -14 4 0 10 13 14 40 11 12 -2
12 0 1 7 -17 12 -3 20 28 17 21 -2 22 0 7 10 -34 25 -11 29 34 6 24 -13 24
-12 -3 14 -15 14 -25 30 -22 36 8 12 16 11 13 -2 -2 -6 5 -13 14 -14 10 -2 16
3 15 14 -2 30 -32 21 -68 -20z"/>
<path d="M4133 2640 c-12 -11 -34 -36 -50 -57 -15 -21 -38 -46 -51 -57 -13
-10 -21 -25 -18 -33 3 -8 2 -12 -2 -9 -8 5 -50 -34 -100 -93 l-29 -34 -89 69
c-133 103 -188 118 -242 67 -7 -7 -16 -13 -20 -13 -69 -5 -108 -12 -138 -25
-21 -9 -44 -13 -52 -10 -7 3 -20 -2 -28 -10 -9 -8 -24 -15 -34 -15 -29 0 -219
-131 -302 -209 -43 -40 -100 -101 -128 -136 -28 -36 -54 -64 -58 -64 -19 3
-32 -2 -32 -12 0 -8 5 -8 15 1 26 21 17 2 -44 -93 -140 -221 -143 -280 -20
-381 54 -43 70 -62 66 -77 -3 -10 -1 -19 3 -19 4 0 6 -9 3 -20 -3 -11 0 -20 6
-20 6 0 34 -18 62 -40 51 -40 69 -48 69 -30 0 6 5 10 11 10 5 0 8 -4 5 -9 -3
-4 6 -21 19 -37 28 -32 30 -45 13 -62 -9 -9 -6 -12 14 -12 28 0 55 30 103 115
54 96 134 214 170 249 19 19 35 40 35 46 0 5 5 9 11 7 6 -1 16 7 22 18 16 27
157 195 164 195 3 0 3 -9 0 -20 -3 -11 -1 -20 5 -20 12 0 108 96 108 109 0 5
10 11 22 13 14 2 22 11 23 24 1 21 50 71 104 106 14 10 26 24 26 32 0 8 12 24
28 36 34 27 25 44 -19 35 -23 -4 -34 -2 -34 6 0 7 -10 9 -30 5 -32 -6 -89 18
-128 54 -12 11 -26 20 -31 20 -5 0 -13 9 -16 20 -3 11 -12 20 -18 20 -7 0 -27
14 -45 30 -18 17 -37 30 -42 30 -5 0 -11 9 -15 19 -3 11 -16 21 -28 24 -19 3
-18 5 13 19 34 16 35 16 46 -10 17 -41 214 -193 265 -206 15 -3 46 1 70 9 53
19 87 11 49 -11 l-25 -15 29 4 c35 6 112 -32 142 -70 l20 -26 32 41 33 41 -23
15 c-28 20 -44 20 -52 1 -3 -8 -10 -15 -16 -15 -16 0 -12 27 5 34 22 8 18 36
-5 36 -18 0 -19 2 -8 21 10 17 10 23 1 26 -7 3 -13 11 -13 19 0 7 -9 19 -20
26 -11 7 -20 17 -20 22 0 4 7 3 15 -4 20 -17 32 -5 15 15 -19 23 -3 18 36 -11
19 -15 34 -22 34 -16 0 6 -8 17 -17 24 -10 7 -25 22 -33 32 -14 18 -13 18 9
11 20 -6 23 -4 18 9 -7 19 4 21 21 4 6 -6 15 -8 19 -4 5 4 -3 17 -17 28 l-25
21 28 -7 c29 -7 35 2 15 22 -20 20 7 14 35 -8 37 -29 45 -24 14 8 -28 29 -27
45 1 34 15 -5 15 -4 3 11 -12 15 -11 17 2 17 9 0 19 -4 22 -10 3 -5 11 -10 17
-10 6 0 4 8 -5 18 -21 23 -22 36 -1 28 12 -4 14 -1 9 14 -9 27 4 25 37 -7 15
-15 28 -22 28 -17 0 6 -11 21 -25 34 -26 24 -24 46 3 35 14 -5 14 -3 -1 13 -9
10 -14 22 -10 25 16 17 -16 5 -34 -13z m-1103 -478 c3 -12 19 -32 36 -44 17
-13 29 -29 26 -36 -6 -20 39 -54 66 -49 22 4 22 3 7 -20 -15 -23 -15 -23 5
-11 11 7 21 16 21 20 6 36 19 54 67 93 29 24 38 29 23 12 -31 -34 -13 -36 19
-2 13 14 29 25 36 25 7 0 -8 -20 -33 -44 l-46 -43 34 -33 34 -32 -34 26 c-33
27 -59 30 -53 7 1 -7 -2 -10 -7 -7 -5 4 -12 2 -15 -3 -4 -5 14 -24 39 -42 25
-18 43 -34 40 -37 -2 -2 -22 10 -43 27 -39 31 -62 39 -62 23 0 -5 20 -23 45
-41 25 -18 45 -35 45 -37 0 -3 -14 4 -31 16 -16 12 -33 19 -36 16 -9 -9 58
-76 76 -76 10 0 12 -3 5 -8 -6 -4 -17 -24 -23 -45 -15 -45 -142 -270 -149
-263 -2 3 1 19 7 37 16 46 14 90 -6 112 -17 19 -17 20 5 14 13 -3 22 -2 20 3
-4 10 -113 97 -129 102 -7 2 -11 17 -11 32 0 20 -3 24 -9 15 -8 -12 -10 -12
-18 0 -5 8 -7 19 -5 25 2 6 -8 20 -23 31 -56 42 -68 53 -61 60 4 4 22 -3 40
-15 32 -21 32 -21 -5 13 l-37 34 22 40 c35 61 92 133 103 129 5 -1 12 -12 15
-24z m33 -687 l28 -21 -36 -79 c-19 -43 -38 -81 -40 -84 -3 -2 -14 4 -25 14
-16 14 -19 26 -14 51 4 24 1 38 -11 51 -11 11 -14 18 -6 21 6 2 11 10 11 17 0
7 7 15 15 19 8 3 15 12 15 19 0 20 30 16 63 -8z"/>
<path d="M4343 2625 c-15 -19 -34 -35 -41 -35 -12 0 -32 -39 -32 -62 0 -6 10
-8 22 -5 15 4 30 -1 45 -15 26 -25 42 -16 67 36 27 58 17 116 -21 116 -6 0
-25 -16 -40 -35z"/>
<path d="M2875 2235 c-27 -35 -99 -123 -159 -195 l-109 -132 33 -31 c19 -19
34 -27 37 -20 2 6 22 37 44 68 22 32 38 59 36 62 -6 5 -87 -97 -87 -110 0 -7
-4 -7 -12 1 -10 10 -8 15 7 26 11 8 40 42 65 75 25 33 50 59 57 56 6 -2 17 4
25 13 12 15 11 16 -4 3 -10 -7 -18 -9 -18 -3 0 14 91 113 99 107 4 -2 32 20
61 50 30 30 49 55 43 55 -6 0 -16 -7 -23 -15 -7 -9 -15 -13 -18 -10 -3 3 5 17
19 32 13 14 19 23 12 19 -6 -3 -14 -2 -18 4 -14 23 -43 5 -90 -55z"/>
<path d="M6980 2220 c-315 -20 -599 -100 -751 -209 -87 -64 -239 -203 -269
-248 -26 -40 -30 -56 -32 -117 -1 -89 0 -83 -25 -136 -19 -43 -38 -69 -99
-132 -28 -28 -110 -71 -158 -82 -35 -9 -215 -191 -217 -221 -1 -16 -3 -15 -12
8 -6 15 -14 27 -17 27 -9 0 -32 -51 -26 -58 3 -3 10 6 15 19 l9 24 7 -28 c6
-21 12 -26 25 -22 13 4 30 -5 52 -26 18 -17 25 -26 16 -19 -22 15 -23 2 -4
-26 12 -17 12 -22 0 -39 -8 -10 -14 -15 -14 -9 0 5 -9 -6 -20 -23 -21 -36 -19
-83 6 -104 8 -6 14 -16 14 -22 0 -16 147 -155 172 -163 13 -4 26 -11 29 -16 3
-5 28 -11 55 -14 43 -5 53 -2 79 21 17 15 37 32 45 39 9 6 31 31 50 56 33 43
47 67 84 150 24 53 84 110 146 139 50 23 67 25 180 26 l125 0 -1 -28 c0 -24 3
-27 20 -23 12 3 24 6 29 6 4 0 7 7 7 15 0 8 5 15 11 15 7 0 9 -10 5 -27 -4
-16 -9 -37 -11 -48 -3 -11 4 -1 15 23 22 49 55 60 44 15 -4 -16 -11 -39 -16
-52 -5 -13 -7 -25 -5 -28 2 -2 12 17 21 41 13 33 22 44 37 43 10 -1 19 -5 19
-10 0 -4 5 -5 10 -2 6 3 10 2 10 -3 0 -5 18 -17 41 -27 23 -11 71 -47 107 -81
36 -35 75 -71 87 -81 12 -10 49 -42 81 -72 52 -48 56 -55 41 -66 -17 -12 -53
-112 -44 -121 2 -3 10 16 17 42 15 54 29 61 73 41 17 -8 39 -17 47 -20 10 -4
11 -6 2 -6 -14 -1 55 -71 69 -71 5 0 9 -7 9 -15 0 -8 7 -15 16 -15 8 0 13 -4
10 -8 -2 -4 15 -21 40 -37 24 -17 46 -37 49 -45 3 -8 -6 -55 -19 -103 -12 -48
-20 -87 -16 -87 4 0 20 34 34 74 29 79 56 116 56 77 0 -12 12 -29 28 -39 15
-9 28 -24 30 -32 6 -27 32 -48 53 -43 14 4 18 1 13 -10 -3 -10 2 -20 15 -27
12 -6 21 -15 21 -20 0 -12 32 -46 51 -53 31 -12 -37 -6 -93 9 -97 25 -77 9 27
-21 97 -29 134 -48 72 -38 -26 4 -36 1 -40 -11 -4 -11 -3 -15 4 -11 6 4 13 -2
16 -14 5 -20 12 -21 127 -21 l121 0 -47 48 c-26 26 -80 83 -120 126 -74 81
-152 159 -249 252 -30 28 -71 69 -91 90 -20 22 -43 44 -50 50 -7 6 -32 31 -54
55 -23 24 -106 107 -185 184 -180 175 -289 293 -289 310 0 8 4 16 9 19 13 9
332 -311 326 -326 -9 -22 795 -822 810 -807 2 2 -45 54 -103 115 -59 60 -140
146 -181 190 -41 43 -228 235 -415 425 -445 451 -431 435 -413 442 21 8 521
-477 876 -848 89 -93 158 -163 154 -154 -16 32 -263 289 -630 656 -205 204
-373 378 -373 385 0 14 46 68 59 68 4 0 131 -121 282 -268 151 -147 317 -308
369 -357 52 -50 165 -158 250 -242 417 -408 422 -413 460 -412 l35 0 -120 115
c-143 137 -321 301 -357 329 -103 80 -668 644 -668 668 0 7 -38 50 -84 96 -58
57 -83 90 -83 107 0 14 -19 44 -47 75 -25 28 -46 59 -46 69 0 10 -4 20 -9 22
-12 4 -71 137 -71 160 0 46 24 64 120 87 59 14 257 38 390 46 58 4 113 11 123
17 16 8 17 5 13 -31 -3 -23 -1 -41 3 -41 11 0 51 41 74 74 10 15 42 37 70 50
29 13 67 36 86 51 32 28 33 31 28 84 -6 59 -14 68 -77 87 l-35 10 42 7 c23 4
44 11 47 15 3 5 -2 31 -10 59 -13 43 -20 53 -42 57 -52 10 -458 14 -582 6z
m-270 -216 c0 -3 -11 -15 -25 -26 -38 -30 -57 -74 -66 -160 -10 -85 -4 -122
38 -256 l26 -84 -64 -64 c-49 -50 -69 -64 -87 -61 -19 4 -21 1 -16 -16 4 -13
2 -17 -5 -13 -6 4 -21 -2 -33 -13 -12 -12 -28 -21 -35 -21 -8 0 -12 -4 -9 -9
3 -5 -1 -11 -9 -15 -8 -3 -17 -1 -20 4 -4 6 -15 10 -27 10 -37 0 -85 31 -104
66 -24 43 -48 50 -124 33 -55 -12 -67 -20 -155 -106 -52 -51 -109 -100 -125
-108 -19 -10 -27 -20 -24 -30 5 -13 -20 -44 -143 -172 -46 -48 -49 -49 -75
-26 -24 22 -23 30 10 62 15 14 46 48 70 75 23 27 59 61 80 77 20 16 42 32 47
37 6 4 31 22 56 39 25 18 89 78 142 134 93 99 97 102 131 96 20 -3 36 -2 36 4
0 5 12 9 27 9 14 0 24 3 21 6 -8 7 36 54 51 54 6 0 24 14 39 30 16 17 35 30
41 30 7 0 9 5 6 10 -3 6 1 10 9 10 9 0 16 5 16 10 0 6 9 10 21 10 11 0 17 5
14 10 -3 6 -2 10 4 10 5 0 11 15 13 33 2 17 8 31 14 30 11 -2 64 95 64 116 0
17 31 69 45 75 8 3 15 11 15 18 1 7 22 30 48 51 45 35 62 44 62 31z"/>
<path d="M2547 1520 c-10 -70 2 -103 58 -152 27 -23 46 -37 42 -31 -6 9 -3 11
7 7 9 -3 14 -10 11 -14 -3 -5 14 -22 39 -39 27 -19 45 -40 48 -56 3 -14 3 -25
0 -25 -3 0 -26 18 -51 41 -62 55 -68 59 -82 59 -6 0 5 -17 25 -37 20 -21 36
-41 36 -45 0 -4 7 -8 16 -8 8 0 12 -5 9 -10 -10 -17 17 -57 96 -140 19 -19 34
-38 34 -42 0 -5 4 -8 9 -7 5 0 12 -3 15 -8 3 -4 15 -13 26 -20 11 -6 19 -16
17 -22 -1 -6 4 -11 12 -11 8 0 17 -7 20 -16 8 -22 8 -26 -4 -19 -5 3 -7 0 -4
-8 3 -8 14 -17 25 -20 16 -4 17 -2 8 14 -10 20 4 28 16 9 6 -10 -32 -127 -44
-134 -3 -2 -26 2 -51 9 -25 7 -101 29 -170 49 -146 42 -376 96 -405 95 -11 0
-14 -3 -7 -6 6 -2 12 -8 12 -12 0 -4 -32 3 -72 16 -39 13 -76 22 -82 20 -6 -2
20 -12 57 -22 44 -12 67 -23 67 -33 0 -10 -7 -12 -22 -8 -57 15 -70 15 -33 1
31 -12 44 -14 58 -5 11 6 22 9 25 6 3 -3 0 -6 -6 -6 -7 0 -12 -5 -12 -11 0 -6
7 -9 15 -5 8 3 15 2 15 -3 0 -5 14 -11 31 -15 26 -5 29 -9 23 -28 -17 -54 -36
-44 244 -124 45 -13 52 -18 47 -34 -4 -12 -2 -20 4 -20 6 0 11 7 11 15 0 8 7
15 15 15 15 0 237 -60 244 -66 2 -1 -4 -24 -13 -50 -30 -88 -10 -55 40 65 27
66 52 117 55 115 4 -2 5 5 2 16 -4 13 0 20 10 20 8 0 18 10 22 23 6 21 7 21
15 -8 8 -25 15 -30 39 -30 24 -1 28 2 19 12 -6 8 -8 16 -4 20 3 3 6 1 6 -6 0
-7 5 -9 10 -6 6 4 7 11 4 17 -4 6 1 8 15 3 20 -6 28 4 14 19 -4 4 -8 30 -8 58
l0 51 -60 21 c-66 23 -86 35 -145 90 -23 21 -45 34 -52 30 -7 -4 -8 -3 -4 4 4
7 2 12 -3 12 -6 0 -11 12 -11 26 0 24 -2 25 -17 13 -15 -12 -16 -12 -10 4 4
11 2 17 -6 15 -13 -2 -87 68 -87 83 0 5 5 9 11 9 5 0 7 -4 4 -10 -3 -5 -1 -10
5 -10 6 0 18 -7 27 -15 20 -21 30 -11 12 12 -11 13 -5 11 23 -6 l37 -22 7 28
c4 15 11 34 17 41 7 8 5 12 -5 12 -8 0 -23 10 -34 23 l-19 22 22 -19 c12 -10
28 -16 35 -14 7 3 -7 17 -32 34 -25 16 -51 35 -58 41 -7 7 -20 13 -29 13 -11
0 -9 -6 8 -21 13 -11 17 -17 9 -12 -17 9 -22 10 -52 12 -19 1 -20 3 -8 11 12
8 12 10 1 10 -9 0 -12 8 -9 24 4 21 -6 33 -58 75 -65 52 -80 60 -71 38 2 -6
-1 -18 -8 -24 -10 -10 -16 -9 -25 2 -6 8 -9 19 -5 25 3 5 2 10 -4 10 -5 0 -11
10 -13 23 -2 14 -6 6 -11 -23z m-48 -709 c53 -16 119 -35 148 -42 49 -12 51
-13 40 -36 -5 -12 -16 -23 -23 -23 -34 0 -277 75 -281 87 -6 15 3 43 13 43 4
0 50 -13 103 -29z"/>
<path d="M6780 1222 c0 -4 165 -173 368 -374 338 -337 573 -575 761 -772 56
-58 80 -76 97 -74 19 3 8 17 -77 95 -54 51 -97 93 -95 93 2 0 -58 59 -133 131
-75 73 -310 307 -522 520 -213 214 -389 389 -393 389 -3 0 -6 -4 -6 -8z"/>
<path d="M6410 413 c0 -5 9 -14 20 -21 28 -17 25 -35 -8 -50 -38 -17 -69 -84
-53 -118 15 -33 13 -43 -3 -21 -11 15 -15 15 -19 3 -3 -8 -39 -25 -79 -36 -40
-12 -84 -27 -98 -33 -14 -5 -55 -9 -92 -8 -60 3 -68 1 -68 -16 0 -12 -19 -28
-55 -47 -31 -16 -60 -37 -66 -48 -10 -18 -4 -19 157 -17 165 1 169 1 227 30
71 36 97 33 42 -4 l-40 -27 127 0 c74 0 129 4 133 10 3 6 21 10 38 11 l32 1
-32 10 c-45 15 -42 41 8 75 34 22 42 24 50 12 5 -8 7 -25 4 -38 -17 -69 -17
-81 -4 -81 10 0 14 16 15 58 1 79 13 134 27 129 13 -4 11 -107 -1 -117 -4 -3
-7 -20 -7 -38 0 -26 4 -32 22 -32 28 0 40 20 21 34 -10 8 -14 22 -10 44 4 27
11 36 43 49 38 15 59 49 45 72 -3 5 0 12 6 15 9 3 7 9 -6 20 -13 11 -40 16
-79 16 -40 0 -56 3 -51 11 5 8 -4 10 -30 7 -26 -3 -35 -1 -32 8 6 15 -49 59
-99 80 -19 8 -35 18 -35 23 0 5 -11 16 -25 25 -14 9 -25 13 -25 9z"/>
</g>
</svg>
